<svg width="30" height="30" viewBox="0 0 30 30" fill="none" xmlns="http://www.w3.org/2000/svg">
<path d="M25.9997 18.1759C16.5969 8.77313 19.7659 11.9422 17.6056 9.78188L14.8075 12.5798C13.6076 13.7797 11.6549 13.7797 10.455 12.5798C9.25512 11.38 9.25512 9.42721 10.455 8.22733L14.659 4.02329C13.3406 3.56925 11.9089 3.58273 10.6092 4.02898L8.19229 1.64C7.16204 0.609747 5.49165 0.609747 4.46152 1.64L0.730742 5.37066C-0.299452 6.40091 -0.212909 8.12977 0.817226 9.16002L3.36177 11.7046C3.2788 12.3339 3.2955 12.9755 3.48189 13.5879C4.41095 13.4532 5.38923 13.7321 6.10243 14.4453C6.71169 15.0544 7.00817 15.8576 6.99885 16.6578C7.79913 16.6485 8.60221 16.9451 9.21141 17.5543C9.82067 18.1635 10.1172 18.9665 10.1078 19.7668C10.9081 19.7576 11.7112 20.054 12.3205 20.6632C12.9296 21.2725 17.9165 26.2594 17.9165 26.2594C18.4316 26.7744 19.267 26.7744 19.7819 26.2594C20.297 25.7443 20.2969 24.9092 19.7819 24.394C15.4543 20.0664 17.0981 21.7101 16.3621 20.9742C16.0187 20.6308 16.0187 20.0739 16.3621 19.7305C16.7055 19.3871 17.2623 19.3872 17.6057 19.7305C18.3401 20.465 16.7327 18.8575 21.0255 23.1504C21.5406 23.6653 22.3759 23.6653 22.8909 23.1504C23.406 22.6353 23.406 21.8 22.8909 21.285C18.5633 16.9574 20.207 18.6011 19.4711 17.8652C19.1277 17.5217 19.1277 16.9649 19.4711 16.6215C19.8145 16.278 20.3713 16.278 20.7147 16.6215C21.4492 17.356 19.8417 15.7485 24.1345 20.0413C24.6496 20.5563 25.4849 20.5563 25.9999 20.0413C26.5149 19.5262 26.5149 18.6909 25.9997 18.1759Z" fill="white"/>
<path d="M4.8592 15.6887C4.3441 15.1737 3.50896 15.1737 2.99381 15.6887L1.12842 17.5541C0.613443 18.0692 0.613443 18.9043 1.12842 19.4195C1.64352 19.9346 2.47883 19.9346 2.99381 19.4195L4.8592 17.5541C5.37435 17.0391 5.37435 16.2039 4.8592 15.6887Z" fill="white"/>
<path d="M7.96756 18.7979C7.45247 18.2828 6.61733 18.2828 6.10218 18.7979L4.23691 20.6632C3.72181 21.1783 3.72181 22.0136 4.23691 22.5286C4.75189 23.0437 5.58708 23.0437 6.10218 22.5286L7.96756 20.6632C8.48266 20.1482 8.48266 19.3129 7.96756 18.7979Z" fill="white"/>
<path d="M11.0769 21.9068C10.562 21.3917 9.72671 21.3917 9.21167 21.9068L7.34628 23.7722C6.83119 24.2872 6.83119 25.1225 7.34628 25.6375C7.86126 26.1526 8.69646 26.1526 9.21156 25.6375L11.0769 23.7721C11.5921 23.2571 11.5921 22.4218 11.0769 21.9068Z" fill="white"/>
<path d="M14.1853 25.0157C13.6704 24.5006 12.8351 24.5006 12.3201 25.0157L10.4547 26.8811C9.93958 27.3961 9.93958 28.2313 10.4547 28.7464C10.9698 29.2615 11.8049 29.2615 12.3201 28.7464L14.1853 26.8811C14.7004 26.366 14.7004 25.5308 14.1853 25.0157Z" fill="white"/>
<path d="M29.2275 5.58697L25.4969 1.85631C24.4666 0.826055 22.7963 0.826055 21.7661 1.85631L19.1262 4.53076C17.955 4.22127 16.6588 4.51113 15.7404 5.42935C15.4576 5.71218 15.3355 5.83423 15.2869 5.88287C15.2868 5.88298 15.2866 5.88316 15.2865 5.88328C15.278 5.89177 15.2759 5.894 15.2715 5.89828C15.2647 5.90513 15.2606 5.90923 15.2605 5.90935C15.2605 5.90935 15.2588 5.91105 15.2589 5.91087C15.1348 6.03486 14.4901 6.67956 11.6987 9.47097C11.1838 9.98607 11.1838 10.8214 11.6987 11.3364C12.2137 11.8515 13.049 11.8515 13.5641 11.3364L16.3622 8.53827C17.049 7.8515 18.1625 7.8515 18.8493 8.53827L25.689 15.378C26.6074 14.4596 26.8972 13.1634 26.5878 11.9922L29.2275 9.31775C30.2578 8.28755 30.2578 6.61722 29.2275 5.58697Z" fill="white"/>
</svg>
