<svg width="27" height="30" viewBox="0 0 27 30" fill="none" xmlns="http://www.w3.org/2000/svg">
<path d="M26.1675 13.3694C26.07 13.603 25.8426 13.7555 25.5902 13.7555H18.7438V29.3752C18.7438 29.7201 18.4638 30 18.1189 30H8.12228C7.7774 30 7.49748 29.7201 7.49748 29.3752V13.7554H0.624804C0.372408 13.7554 0.144965 13.6029 0.047498 13.3705C-0.0487392 13.1369 0.00374299 12.8682 0.182452 12.6895L12.647 0.183687C12.7645 0.066246 12.9232 0 13.0894 0C13.2555 0 13.4143 0.066246 13.5317 0.182457L26.0325 12.6883C26.2112 12.867 26.265 13.1356 26.1675 13.3694Z" fill="white"/>
</svg>
