<svg width="30" height="30" viewBox="0 0 30 30" fill="none" xmlns="http://www.w3.org/2000/svg">
<g clip-path="url(#clip0)">
<ellipse cx="15" cy="18.5" rx="6" ry="6.5" fill="white"/>
<path d="M17.0393 19.9282C16.9273 19.8055 16.7855 19.7138 16.639 19.6373C16.3201 19.471 15.9713 19.3701 15.625 19.2791V21.9627C16.1871 21.8991 16.8325 21.6951 17.1276 21.1703C17.2685 20.9197 17.2965 20.6117 17.2391 20.3326C17.208 20.1814 17.1437 20.0426 17.0393 19.9282Z" fill="white"/>
<path d="M17.125 21.1754C17.1261 21.1735 17.1268 21.1723 17.128 21.1703C17.127 21.172 17.126 21.1737 17.125 21.1754Z" fill="white"/>
<path d="M12.9889 15.6384C12.8923 15.7795 12.8316 15.9398 12.8149 16.1103C12.7982 16.281 12.8075 16.471 12.8724 16.6317C12.9342 16.7849 13.0636 16.898 13.1971 16.989C13.347 17.091 13.5118 17.1706 13.6797 17.2381C13.8205 17.2948 13.9789 17.349 14.1497 17.4014V14.973C13.7183 15.0651 13.247 15.2616 12.9889 15.6384Z" fill="white"/>
<path d="M17.14 21.1505C17.1365 21.1568 17.1326 21.1634 17.1289 21.1703C17.1333 21.1622 17.1367 21.1563 17.14 21.1505Z" fill="white"/>
<path d="M17.1533 21.1254C17.1542 21.1236 17.1544 21.1235 17.1533 21.1254V21.1254Z" fill="white"/>
<path d="M16.5711 6.52751C18.8532 4.61039 20.3782 0.291389 19.4397 0.102486C18.1928 -0.148608 15.485 0.952407 14.1763 1.14639C12.32 1.37052 10.2983 -0.866523 9.16342 0.380405C8.24072 1.39424 9.82493 5.08123 12.3035 6.68747C4.90887 10.3218 -5.48475 28.5665 12.6475 29.8903C37.7365 31.722 25.1735 10.0691 16.5711 6.52751ZM18.7258 20.9161C18.6486 21.6274 18.2716 22.2706 17.7082 22.7073C17.1132 23.1684 16.367 23.3829 15.6256 23.4429V24.2288C15.6256 24.4391 15.5337 24.6425 15.3763 24.7817C15.16 24.9731 14.842 25.0204 14.5794 24.8994C14.3201 24.7801 14.1498 24.5142 14.1498 24.2288V23.3699C14.0227 23.3457 13.8964 23.317 13.7717 23.2828C13.0788 23.0924 12.436 22.7213 11.9665 22.1722C11.7327 21.8985 11.542 21.588 11.4101 21.2528C11.3757 21.1651 11.345 21.0759 11.3181 20.9857C11.2937 20.904 11.2686 20.821 11.2599 20.7359C11.2453 20.5931 11.2736 20.4474 11.3402 20.3202C11.477 20.0585 11.7653 19.9004 12.0597 19.9267C12.3494 19.9524 12.6033 20.1534 12.6945 20.4296C12.7226 20.5147 12.7416 20.6018 12.7732 20.686C12.8045 20.7696 12.8422 20.8508 12.8866 20.9282C12.9743 21.0805 13.0841 21.221 13.2106 21.3429C13.4714 21.5941 13.8035 21.7574 14.1498 21.8545V18.9347C13.4728 18.7595 12.7739 18.5331 12.2148 18.0984C11.9431 17.887 11.7126 17.6244 11.5616 17.3136C11.4022 16.9856 11.3362 16.6201 11.3335 16.2571C11.3308 15.8886 11.4008 15.5233 11.5546 15.1875C11.6986 14.873 11.9059 14.5908 12.1601 14.3567C12.7037 13.8565 13.4257 13.5774 14.1499 13.4749V13.4107V12.6591C14.1499 12.4489 14.2417 12.2454 14.3991 12.1062C14.6156 11.9148 14.9334 11.8675 15.196 11.9885C15.4552 12.1079 15.6257 12.3738 15.6257 12.6591V13.4107V13.4705C15.7222 13.4826 15.8184 13.4972 15.9141 13.5145C16.6252 13.6432 17.3208 13.9369 17.8408 14.4496C18.0872 14.6924 18.2889 14.9818 18.4307 15.2973C18.4703 15.3853 18.5049 15.4754 18.5349 15.5672C18.5629 15.6529 18.591 15.741 18.6043 15.8304C18.6257 15.9731 18.6039 16.1205 18.5429 16.251C18.4178 16.5184 18.1372 16.6887 17.8421 16.676C17.5521 16.6634 17.2894 16.4746 17.1855 16.2035C17.1546 16.1229 17.1391 16.0375 17.1076 15.9571C17.0757 15.8757 17.0345 15.7981 16.987 15.7247C16.8947 15.5821 16.775 15.4599 16.6384 15.3591C16.3427 15.1407 15.9839 15.0269 15.6254 14.9633V17.7575C16.0515 17.8595 16.4778 17.9707 16.886 18.1317C17.5029 18.375 18.0875 18.748 18.4242 19.3361C18.3719 19.2445 18.3211 19.1552 18.426 19.3392C18.5289 19.5199 18.4797 19.4338 18.4281 19.3432C18.696 19.8153 18.784 20.3798 18.7258 20.9161Z" fill="white"/>
<path d="M17.1175 21.1895C17.1132 21.1971 17.1094 21.2039 17.1064 21.2091C17.109 21.2046 17.1128 21.1979 17.1175 21.1895Z" fill="white"/>
<path d="M10.7304 20.085H11.7954V21H10.7304V22.2H11.7954V24H13.1904V22.2H17.9004V21H13.1904V20.085H14.3754C15.8754 20.085 16.7754 19.725 17.4954 19.005C18.0804 18.42 18.4254 17.58 18.4254 16.665C18.4254 15.51 17.9454 14.7 17.1654 14.16C16.5054 13.695 15.6804 13.5 14.4354 13.5H11.7954V18.885H10.7304V20.085ZM16.9704 16.71C16.9704 17.37 16.7904 17.85 16.3704 18.27C15.9054 18.75 15.2754 18.9 14.1354 18.9H13.1904V14.7H14.3454C15.2304 14.7 15.7704 14.805 16.2204 15.105C16.7304 15.435 16.9704 15.99 16.9704 16.71Z" fill="#C49955"/>
</g>
<defs>
<clipPath id="clip0">
<rect width="30" height="30" fill="white"/>
</clipPath>
</defs>
</svg>
