<svg width="24" height="24" viewBox="0 0 24 24" fill="none" xmlns="http://www.w3.org/2000/svg">
<g clip-path="url(#clip0)">
<path d="M22.2433 2.18184H4.36362C4.30978 2.18184 4.26063 2.20209 4.21016 2.21727L3.7707 0.773131C3.63094 0.313875 3.20733 0 2.72726 0H0.545472C0.244227 0 0 0.244227 0 0.545472V1.63636C0 1.93761 0.244227 2.18184 0.545472 2.18184H1.91925L5.32729 13.3812L4.05445 14.8662C3.55137 15.4531 3.32484 16.2617 3.55638 16.9992C3.85251 17.9424 4.68496 18.5454 5.64474 18.5454H21.2727C21.574 18.5454 21.8182 18.3012 21.8182 18V16.9091C21.8182 16.6078 21.574 16.3636 21.2727 16.3636H5.64469L7.37377 14.3464C7.41723 14.2956 7.44919 14.2384 7.48218 14.1818H18.0522C18.8977 14.1818 19.667 13.6935 20.027 12.9286L23.8333 4.84032C23.9425 4.60754 24 4.3492 24 4.09296V3.93847C24 2.96837 23.2135 2.18184 22.2433 2.18184Z" fill="#131313"/>
<path d="M6.54512 24.0002C7.75012 24.0002 8.72696 23.0233 8.72696 21.8183C8.72696 20.6133 7.75012 19.6365 6.54512 19.6365C5.34012 19.6365 4.36328 20.6133 4.36328 21.8183C4.36328 23.0233 5.34012 24.0002 6.54512 24.0002Z" fill="#131313"/>
<path d="M19.6359 24.0002C20.8409 24.0002 21.8178 23.0233 21.8178 21.8183C21.8178 20.6133 20.8409 19.6365 19.6359 19.6365C18.4309 19.6365 17.4541 20.6133 17.4541 21.8183C17.4541 23.0233 18.4309 24.0002 19.6359 24.0002Z" fill="#131313"/>
</g>
<defs>
<clipPath id="clip0">
<rect width="24" height="24" fill="white"/>
</clipPath>
</defs>
</svg>
