<svg width="30" height="30" viewBox="0 0 30 30" fill="none" xmlns="http://www.w3.org/2000/svg">
<path d="M15 0C6.72938 0 0 6.72938 0 15C0 23.2706 6.72938 30 15 30C23.2706 30 30 23.2706 30 15C30 6.72938 23.2706 0 15 0ZM15.9525 4.87313L19.8094 2.79938C21.945 3.645 23.8088 5.03062 25.2263 6.79312L24.3075 11.0344L21.3656 12.4762L15.9525 8.53312V4.87313ZM10.2225 2.78813L14.0794 4.86937V8.53312L8.67 12.4762L5.71312 11.0325L4.79437 6.765C6.21562 5.00625 8.08313 3.62812 10.2225 2.78813ZM4.18125 22.4138C2.95688 20.6325 2.16 18.5381 1.94062 16.275L5.115 12.8269L8.01 14.2425L10.1906 20.4356L8.3475 22.6444L4.18125 22.4138ZM18.3431 27.6769C17.2725 27.96 16.1569 28.125 15 28.125C13.6012 28.125 12.255 27.9 10.9894 27.4931L9.81 23.8219L11.6906 21.5625H18.3169L20.1637 23.7488L18.3431 27.6769ZM21.6263 22.5806L19.8131 20.4338L22.0238 14.2425L24.9056 12.8306L28.0612 16.2769C27.8719 18.2288 27.2437 20.0494 26.2894 21.66L21.6263 22.5806Z" fill="white"/>
</svg>
